<svg width="98" height="62" viewBox="0 0 98 62" fill="none" xmlns="http://www.w3.org/2000/svg">
<g clip-path="url(#clip0_1_2)">
<path d="M1.0125 55.0445L0.945519 54.8715H-0.892639V56.7378H-0.671858V58.3594H-0.892639V60.2208H0.905828V59.7956L1.09436 60.2949H2.5753V56.7378H2.79608V54.8715H1.0125V55.0445Z" fill="white"/>
<path d="M11.8044 55.0449L11.7349 54.8719H9.89428V56.7382H10.12V58.3598H9.9811H9.89428H9.72312L9.39815 56.7382H9.51474V54.8719H9.16498L8.81024 53.7397H7.64682L7.28216 54.8719H6.93487V56.7382H7.05891L6.73394 58.3598H6.52061H6.48092H6.32464V56.7382H6.52061V54.8719H2.83685V56.7382H3.03034V58.3598H2.83685V60.2211H6.48092H6.52061H9.89428H9.9811H11.6977V59.796L11.8838 60.2953H13.3622V56.7382H13.583V54.8719H11.8044V55.0449Z" fill="white"/>
<path d="M24.2614 55.045L24.192 54.872H22.3563V56.7383H22.5746V58.3598H22.1802L21.8552 56.7383H21.9693V54.872H21.3293C21.3541 54.8373 21.3739 54.8052 21.3963 54.7706C21.4856 54.6075 21.5302 54.4319 21.5302 54.254C21.5302 54.0537 21.4756 53.8782 21.3739 53.7349C21.235 53.5445 21.0341 53.4432 20.8034 53.4432L20.5082 53.4531H20.1386L19.9401 54.5729H20.2056C20.1708 54.6445 20.146 54.7286 20.146 54.8176V54.872H19.3944V56.7383H19.5159L19.191 58.3598H18.9727C18.9504 58.1052 18.9032 57.8679 18.804 57.6578C18.7544 57.5565 18.7023 57.465 18.6378 57.3859C18.675 57.3315 18.7097 57.2747 18.7395 57.2129C18.8462 56.9929 18.9007 56.7333 18.9007 56.4441C18.9007 56.0239 18.8065 55.6778 18.6279 55.4183C18.4641 55.1661 18.1417 54.872 17.5438 54.872H15.3708V56.7383H15.5916V58.3598H15.3708V60.2237H17.4868C18.1566 60.2237 18.5187 59.9097 18.7023 59.6452C18.8139 59.4821 18.8883 59.2893 18.9355 59.0718V60.2237H24.1547V59.7985L24.3408 60.2978H25.8193V56.7407H26.0376V54.8744H24.2589V55.0475L24.2614 55.045Z" fill="white"/>
<path d="M30.7126 56.6369H27.8623V58.471H30.7126V56.6369Z" fill="white"/>
<path d="M36.157 56.6809C36.152 56.1989 36.0454 55.7911 35.8395 55.4722C35.5741 55.0791 35.1697 54.8715 34.6661 54.8715H32.5824V56.7403H32.828V58.3544H32.5824V60.2257H34.8224V58.4978C35.0234 58.4904 35.1995 58.4335 35.3657 58.347C35.3979 58.3322 35.4351 58.3198 35.4674 58.3025C35.651 58.1814 35.8072 58.0084 35.9213 57.7884C36.0751 57.4917 36.1545 57.1308 36.157 56.7156V56.7427H36.348V58.3569H36.157V60.2282H39.8432V58.3569H39.6473V56.7427H39.8432V54.874H36.157V56.6859V56.6809Z" fill="white"/>
<path d="M39.8559 56.7408H40.0494V58.0163C40.0494 58.7653 40.1585 59.3091 40.3793 59.6749C40.4934 59.8702 40.6447 60.0235 40.8233 60.1298C40.7737 60.1743 40.734 60.2212 40.6993 60.2707C40.6944 60.2781 40.6919 60.283 40.6894 60.2905C40.6621 60.3275 40.6398 60.3696 40.6199 60.414C40.6175 60.4239 40.615 60.4363 40.6075 60.4462C40.5926 60.4833 40.5852 60.5203 40.5778 60.5599C40.5778 60.5648 40.5778 60.5698 40.5778 60.5747C40.5703 60.6118 40.5654 60.6464 40.5654 60.686C40.5654 61.0617 40.7961 61.4597 41.4485 61.4597C41.5775 61.4597 41.6866 61.435 41.7784 61.4053C41.7834 61.4028 41.7908 61.4003 41.7933 61.4003C41.9123 61.3583 42.0066 61.3015 42.0661 61.2446C42.2348 61.0914 42.3266 60.8961 42.3266 60.6736C42.3266 60.4758 42.2497 60.2929 42.1083 60.1545C42.4258 59.9914 42.7012 59.6527 42.8351 59.0223C42.8897 58.7752 42.9245 58.4859 42.9245 58.1374V56.7531H43.1254V54.8745H39.8584V56.7383L39.8559 56.7408Z" fill="white"/>
<path d="M45.0878 55.0198L45.0382 54.8715H43.1827V56.7403H43.4035V58.3544H43.1827V60.2257H44.9861V59.8104L45.0729 60.0378L45.1622 60.2999H46.6531V56.7403H46.8714V54.8715H45.0878V55.0198Z" fill="white"/>
<path d="M50.3609 54.872H49.1206C48.9742 54.8077 48.8105 54.7781 48.6418 54.7781C48.2722 54.7781 47.7513 54.9313 47.3494 55.6457C47.0691 56.15 46.9227 56.7878 46.9227 57.5466C46.9227 58.1745 47.0269 58.7257 47.2303 59.1831C47.6272 60.1076 48.3045 60.3028 48.8031 60.3028C49.1553 60.3028 49.6589 60.1768 50.031 59.5662C50.3138 59.1138 50.4552 58.4959 50.4552 57.7345V57.0078H50.3659V54.872H50.3609ZM49.0139 57.0078H48.813C48.8303 56.852 48.8477 56.768 48.8676 56.7185C48.8676 56.7062 48.875 56.6938 48.88 56.6815C48.9122 56.726 48.9519 56.8051 48.999 56.9534L49.0164 57.0102L49.0139 57.0078Z" fill="white"/>
<path d="M54.5369 56.9434H54.9785V54.8694H53.8051C53.6836 54.8249 53.567 54.8101 53.4678 54.8101C53.2098 54.8101 52.8402 54.9065 52.5673 55.3737C52.3887 55.6827 52.2944 56.0782 52.2944 56.5528C52.2944 56.973 52.3862 57.3562 52.5747 57.6899C52.6244 57.7888 52.6963 57.8876 52.7732 57.9841H52.3118V60.2236H53.5348C53.6563 60.2681 53.7729 60.2805 53.8672 60.2805C54.1301 60.2805 54.4997 60.1816 54.79 59.6971C54.9835 59.3733 55.0802 58.9753 55.0802 58.5106C55.0802 58.0458 54.9934 57.6528 54.8172 57.329C54.7428 57.2029 54.6535 57.0719 54.5394 56.9409L54.5369 56.9434Z" fill="white"/>
<path d="M57.5399 54.8768H55.0916V56.7407H55.285V58.0162C55.285 58.7652 55.3942 59.309 55.6174 59.6748C55.7291 59.8652 55.8729 60.011 56.0391 60.1173C55.9102 60.2557 55.8382 60.4288 55.8382 60.6191C55.8382 60.9924 56.0664 61.3928 56.7189 61.3928C56.8503 61.3928 56.957 61.3681 57.0488 61.3385C57.0512 61.3385 57.0562 61.3385 57.0637 61.336C57.1827 61.294 57.272 61.2421 57.3291 61.1877C57.5027 61.0394 57.597 60.8367 57.597 60.6117C57.597 60.4263 57.5325 60.2582 57.4085 60.1247C57.7061 59.9468 57.9542 59.6081 58.0733 59.0074C58.1254 58.7627 58.1576 58.4809 58.1576 58.1422V56.795C58.2444 56.7604 58.3213 56.7085 58.3883 56.6467C58.4106 56.622 58.4255 56.5998 58.4479 56.5726C58.4776 56.5355 58.5123 56.5058 58.5372 56.4663C58.6389 56.2932 58.691 56.0634 58.691 55.7717V54.7532H57.5399V54.8793V54.8768Z" fill="white"/>
<path d="M63.0913 56.6369H60.246V58.4686H63.0913V56.6369Z" fill="white"/>
<path d="M75.7119 56.7378H75.9401V58.3594H75.7839H75.7119H75.5284L75.2009 56.7378H75.3175V54.8715H72.7426V56.7378H72.8666L72.5417 58.3594H72.3283H72.2812H72.1274V56.7378H72.3283V54.8715H68.6396V56.7378H68.8306V58.3594H68.657H68.6396H68.4015L67.9351 57.2495L68.2377 56.7378H68.5974V54.8715H64.9608V56.7378H65.1543V58.3594H64.9608V60.2208H68.6396H68.657H72.2812H72.3283H75.7119H75.7839H77.9147V58.3594H77.684V56.7378H77.9147V54.8715H75.7119V56.7378Z" fill="white"/>
<path d="M81.8013 54.8715H79.725V56.7378H79.9681V58.3594H79.725V60.2232H81.9601V58.4953C82.4463 58.4805 82.8233 58.2358 83.0565 57.7884C83.2103 57.4893 83.2922 57.1234 83.2922 56.7032C83.2922 56.2113 83.1855 55.7985 82.9746 55.4746C82.7117 55.0816 82.3098 54.8715 81.8038 54.8715H81.8013Z" fill="white"/>
<path d="M83.2849 56.7378H83.4735V58.3594H83.2849V60.2208H86.9662V58.3594H86.7727V56.7378H86.9662V54.8715H83.2849V56.7378Z" fill="white"/>
<path d="M89.402 54.8818L90.1759 53.6656H88.6082L88.246 54.9238C87.9682 55.0622 87.6854 55.3168 87.4497 55.7741C87.2016 56.2759 87.0727 56.8692 87.0727 57.5391C87.0727 58.209 87.2017 58.8023 87.4547 59.3041C87.8689 60.1247 88.4544 60.2978 88.8736 60.2978C89.2928 60.2978 89.8783 60.1272 90.295 59.3041C90.548 58.8047 90.677 58.2065 90.677 57.5391C90.677 56.8717 90.548 56.2735 90.295 55.7717C90.0345 55.2649 89.7121 55.0054 89.4045 54.8842L89.402 54.8818Z" fill="white"/>
<path d="M92.6359 55.0445L92.5714 54.8715H90.7332V56.7378H90.9515V58.3594H90.7332V60.2208H92.5317V59.7956L92.7177 60.2949H94.1987V56.7378H94.4194V54.8715H92.6359V55.0445Z" fill="white"/>
<path d="M97.9065 57.0101V54.8718H96.6686C96.5198 54.8125 96.361 54.7804 96.1874 54.7804C95.8202 54.7804 95.3018 54.9312 94.8999 55.6505C94.6196 56.1498 94.4733 56.79 94.4733 57.5465C94.4733 58.1743 94.575 58.7256 94.7784 59.1829C95.1778 60.1074 95.8525 60.2977 96.3461 60.2977C96.7009 60.2977 97.1995 60.1716 97.5716 59.566C97.8544 59.1112 97.9983 58.4957 97.9983 57.7343V57.0101H97.9065ZM96.3585 57.0101C96.371 56.8642 96.3908 56.7752 96.4106 56.7184C96.4106 56.7011 96.4156 56.6887 96.4206 56.6763C96.4528 56.7184 96.5 56.8024 96.552 56.9656L96.562 57.0101H96.3561H96.3585Z" fill="white"/>
<path d="M98 52.6451C82.9251 46.6852 66.1634 43.3605 48.4988 43.3605C30.8341 43.3605 14.0699 46.6877 -1 52.6451C14.5139 51.0408 31.1665 50.1682 48.4988 50.1682C65.831 50.1682 82.4885 51.0408 98 52.6451Z" fill="#FFD012" stroke="#231F20" stroke-width="0.13" stroke-miterlimit="10"/>
<path d="M9.6778 50.8998C19.5706 50.173 29.8628 49.7083 40.4502 49.5451C43.1739 47.7184 46.0143 45.9287 48.9588 44.186C34.4049 45.3305 21.3591 47.664 9.6778 50.8998Z" stroke="#FBE175" stroke-width="0.66" stroke-miterlimit="10"/>
<path d="M40.4405 49.5426C43.2511 49.4957 46.0889 49.4734 48.9367 49.4734L48.9491 44.1835C46.0046 45.9262 43.1642 47.7159 40.4405 49.5426Z" stroke="#FBE175" stroke-width="0.66" stroke-miterlimit="10"/>
<path d="M48.9738 49.476C51.8265 49.476 54.6619 49.4983 57.4725 49.5403C54.7463 47.7111 51.9134 45.9239 48.9589 44.1861L48.9738 49.476Z" stroke="#FBE175" stroke-width="0.66" stroke-miterlimit="10"/>
<path d="M48.943 49.476H48.9702L48.9553 44.1861L48.943 49.476Z" stroke="#FBE175" stroke-width="0.66" stroke-miterlimit="10"/>
<path d="M88.2449 50.8999C76.5635 47.6616 63.5203 45.3306 48.9589 44.1861C51.9134 45.9239 54.7463 47.7111 57.4725 49.5403C62.3023 49.6145 67.08 49.7504 71.7734 49.9482C77.3722 50.1805 82.8644 50.5044 88.2449 50.8999Z" stroke="#FBE175" stroke-width="0.66" stroke-miterlimit="10"/>
<path d="M12.2466 8.26906H4.30605L2.32153 -0.0811157H12.2466V8.26906ZM12.2466 16.8714H6.35258L4.36558 8.52615H12.2466V16.8714ZM12.2466 25.5404H8.41399L6.42948 17.1952H12.2466V25.5404ZM12.2466 34.2095H10.4754L8.48345 25.8643H12.2466V34.2095ZM12.2466 34.5309V41.655L10.5523 34.5309H12.2466ZM14.2733 8.27401L12.6286 8.26906V1.34766L14.2733 8.27401ZM16.3198 16.8788L12.6261 16.8714V8.52615L14.3328 8.53356L16.3198 16.8788ZM22.5537 25.5404H12.6261V17.1952H16.3917L17.5552 22.0946L18.8104 17.1952H22.5512V25.5404H22.5537ZM22.5537 34.2095H12.6261V25.8618H22.5537V34.2095ZM22.5537 42.8736H12.6261V34.5284H22.5537V42.8736ZM22.5537 16.8714H18.8947L20.8222 8.51626L22.5537 8.52367V16.8689V16.8714ZM22.5537 8.26906L20.8842 8.25671L22.5537 1.32047V8.26906ZM32.8607 -0.0811157L30.9308 8.26906H22.9332V-0.0811157H32.8607ZM30.8688 8.52615L28.7826 16.8714H22.9332V8.52615H30.8688ZM28.7081 17.1952L26.7013 25.5454L22.9332 25.5404V17.1952H28.7081ZM26.6244 25.8667L24.6151 34.212H22.9332V25.8643H26.6219L26.6244 25.8667ZM24.5407 34.5333L22.9332 41.2075V34.5333H24.5407Z" fill="#C52032"/>
<path d="M43.2184 8.26906H33.2908V-0.0811157H43.2184V8.26906ZM43.2184 16.8714H33.2908V8.52615H43.2184V16.8714ZM43.2184 25.5404H33.2908V17.1952H43.2184V25.5404ZM43.2184 34.2095H33.2908V25.8618H43.2184V34.2095ZM43.2184 42.8736H33.2908V34.5284H43.2184V42.8736ZM53.5354 17.1952L50.8935 21.6496L53.3047 25.5404H43.5979V17.1952H53.5354ZM53.5254 34.2095H48.6956L43.6748 25.8618H53.5254V34.2095ZM53.5254 16.8714H43.8286L48.775 8.52615H53.5254V16.8714ZM53.5254 42.2334L48.8916 34.5309H53.5254V42.2334ZM53.5254 8.26906H49.0057L53.5254 0.497315V8.26906ZM63.7606 -0.0811157L58.8167 8.26906H53.9025V-0.0811157H63.7606ZM58.6728 8.52615L53.9025 16.7082V8.52615H58.6728ZM58.5339 34.2095H53.905V26.5663L58.5339 34.2095ZM63.8325 42.8736H53.905V34.5284H58.7323L63.8325 42.8736Z" fill="#FFD012"/>
<path d="M74.0608 8.26906H64.1382V-0.0811157H74.0608V8.26906ZM74.0608 16.8714H64.1382V8.52614H74.0608V16.8714ZM74.0608 25.5404H64.1382V17.1952H74.0608V25.5404ZM74.0608 34.2095H64.1382V25.8618H74.0608V34.2095ZM74.0608 42.8736H69.0177C67.6955 42.8736 66.547 42.4608 65.5869 41.6203C64.617 40.7873 64.1407 39.8158 64.1407 38.7059V34.5309H74.0633V42.8761L74.0608 42.8736ZM84.3679 42.8736H74.4404V34.5284H84.3679V42.8736ZM94.6725 8.26906H84.7449V-0.0811157H94.6725V8.26906ZM94.6725 16.8714H84.7449V8.52614H94.6725V16.8714ZM94.6725 25.5404H84.7449V17.1952H94.6725V25.5404ZM94.6725 34.2095H84.7449V25.8618H94.6725V34.2095ZM94.6725 34.5309V38.7059C94.6725 39.8183 94.1863 40.7873 93.2263 41.6203C92.2588 42.4608 91.1128 42.8736 89.7906 42.8736H84.7449V34.5284H94.6725V34.5309Z" fill="#223B73"/>
<path d="M43.2167 8.26906V-0.0811157H33.2891V8.26906" fill="#FFD012"/>
<path d="M43.2167 8.26906V-0.0811157H33.2891V8.26906" stroke="#262626" stroke-width="0.13" stroke-miterlimit="10"/>
<path d="M33.2891 8.52634V16.8716" stroke="#262626" stroke-width="0.13" stroke-miterlimit="10"/>
<path d="M33.2891 17.2223V25.57" stroke="#262626" stroke-width="0.13" stroke-miterlimit="10"/>
<path d="M33.2891 25.8689V34.2141" stroke="#262626" stroke-width="0.13" stroke-miterlimit="10"/>
<path d="M43.2484 25.8689V34.2141" stroke="#262626" stroke-width="0.13" stroke-miterlimit="10"/>
<path d="M33.2891 34.5305V42.8733H43.2167V34.5305" fill="#FFD012"/>
<path d="M33.2891 34.5305V42.8733H43.2167V34.5305" stroke="#262626" stroke-width="0.13" stroke-miterlimit="10"/>
<path d="M43.6723 25.8617L48.6931 34.2094" stroke="#262626" stroke-width="0.13" stroke-miterlimit="10"/>
<path d="M48.8956 34.5305L53.5319 42.2331" stroke="#262626" stroke-width="0.13" stroke-miterlimit="10"/>
<path d="M53.907 42.8733H63.8346L58.7344 34.5305" fill="#FFD012"/>
<path d="M53.907 42.8733H63.8346L58.7344 34.5305" stroke="#262626" stroke-width="0.13" stroke-miterlimit="10"/>
<path d="M58.5359 34.2093L53.907 26.5636" stroke="#262626" stroke-width="0.13" stroke-miterlimit="10"/>
<path d="M53.304 25.5407L50.8928 21.6499L53.5322 17.1955" stroke="#262626" stroke-width="0.13" stroke-miterlimit="10"/>
<path d="M53.907 16.7084L58.6773 8.52634" stroke="#262626" stroke-width="0.13" stroke-miterlimit="10"/>
<path d="M58.8212 8.26906L63.7651 -0.0811157H53.907" stroke="#262626" stroke-width="0.13" stroke-miterlimit="10"/>
<path d="M53.5266 0.497345L49.0068 8.26909" stroke="#262626" stroke-width="0.13" stroke-miterlimit="10"/>
<path d="M48.7829 8.52634L43.8365 16.8716" stroke="#262626" stroke-width="0.13" stroke-miterlimit="10"/>
<path d="M43.2166 8.52634V16.8716" stroke="#262626" stroke-width="0.13" stroke-miterlimit="10"/>
<path d="M6.86145 59.7525V58.6524H7.04997L7.52626 56.2695H7.32533V55.167H9.13372V56.2695H8.93031L9.41155 58.6524H9.59512V59.7525H8.28038V58.7489H8.49868L8.40689 58.1729H7.76192L7.65278 58.7489H7.86115V59.7525H6.86393H6.86145ZM7.65773 54.8654L7.92565 54.0324H8.52596L8.78642 54.8654H8.42674L8.22332 54.5466L8.01743 54.8654H7.65773ZM7.85618 57.6019H8.30519L8.09185 56.3338H8.08441L7.85618 57.6019Z" fill="#C52033"/>
<path d="M10.2809 59.7515V58.6515H10.5042V56.2686H10.2809V55.1661H11.4741L12.392 57.5614H12.3969V56.2686H12.1885V55.1661H13.2031V56.2686H12.9873V59.8282H12.1563L11.0995 57.0374H11.0896V58.6491H11.3153V59.7491H10.2784L10.2809 59.7515Z" fill="#C52033"/>
<path d="M15.7663 59.7515V58.6515H15.9846V56.2686H15.7663V55.1661H17.5524C17.8972 55.1661 18.1527 55.2897 18.3189 55.5369C18.4603 55.7396 18.5273 56.014 18.5273 56.3551C18.5273 56.5875 18.4851 56.7877 18.4032 56.9558C18.3214 57.1214 18.2097 57.2351 18.0659 57.2944V57.3093C18.2321 57.3785 18.366 57.5194 18.4677 57.732C18.567 57.9446 18.6166 58.1868 18.6166 58.4637C18.6166 58.827 18.5422 59.1212 18.3908 59.3412C18.1998 59.6156 17.8997 59.7515 17.4928 59.7515H15.7614H15.7663ZM16.9595 57.0102H17.1902C17.4159 57.0102 17.5276 56.8717 17.5276 56.5949C17.5276 56.318 17.4209 56.1747 17.2026 56.1747H16.9595V57.0102ZM16.9595 58.7479H17.1803C17.3167 58.7479 17.4159 58.7109 17.4755 58.6466C17.535 58.5774 17.5673 58.4637 17.5673 58.3005C17.5673 57.9915 17.4532 57.8383 17.2274 57.8383H16.962V58.7455L16.9595 58.7479Z" fill="#C52033"/>
<path d="M19.3238 59.7515V58.6515H19.5098L19.9861 56.2686H19.7827V55.1661H21.5911V56.2686H21.3901L21.8714 58.6515H22.0574V59.7515H20.7402V58.7479H20.961L20.8642 58.1719H20.2193L20.1101 58.7479H20.3185V59.7515H19.3213H19.3238ZM20.321 57.5985H20.7675L20.5566 56.3304H20.5492L20.321 57.5985ZM20.8047 53.7472L20.8097 53.7348C20.9188 53.7348 21.0032 53.7793 21.0701 53.8683C21.1272 53.9449 21.1545 54.0463 21.1545 54.1674C21.1545 54.2787 21.1222 54.3899 21.0627 54.4987C21.028 54.558 20.9709 54.6297 20.8965 54.7137C20.8419 54.778 20.8146 54.82 20.8221 54.8373H20.5318V54.7285C20.5318 54.6667 20.5815 54.5802 20.6832 54.469C20.7824 54.3578 20.8345 54.2663 20.8345 54.1921C20.8345 54.1303 20.7749 54.1007 20.6559 54.1007H20.4028L20.4673 53.7472H20.8047Z" fill="#C52033"/>
<path d="M22.7488 59.7515V58.6515H22.9696V56.2686H22.7488V55.1661H23.9395L24.8573 57.5614H24.8623V56.2686H24.6539V55.1661H25.6685V56.2686H25.4502V59.8282H24.6192L23.5649 57.0374H23.5575V58.6491H23.7832V59.7491H22.7488V59.7515Z" fill="#C52033"/>
<path d="M28.2582 56.9312H30.3345V58.0015H28.2582V56.9312Z" fill="#FFD111"/>
<path d="M32.9783 59.7515V58.6515H33.2239V56.2686H32.9783V55.1661H34.6775C35.0496 55.1661 35.3349 55.312 35.5284 55.5962C35.6971 55.8533 35.7814 56.192 35.7814 56.6122C35.7814 56.9731 35.7169 57.2771 35.5879 57.5219C35.4167 57.858 35.1464 58.0212 34.7817 58.0212H34.1988V58.6491H34.4518V59.7491H32.9808L32.9783 59.7515ZM34.1963 57.0201H34.4617C34.6626 57.0201 34.7569 56.8792 34.7569 56.6023C34.7569 56.3254 34.6477 56.1771 34.4319 56.1771H34.1938V57.0225L34.1963 57.0201Z" fill="#FFD111"/>
<path d="M36.5488 59.7515V58.6515H36.7373V56.2686H36.5488V55.1661H37.8734V56.2686H37.7122V56.9706H38.2976V56.2686H38.1364V55.1661H39.466V56.2686H39.2725V58.6515H39.466V59.7515H38.1364V58.6515H38.2976V57.9025H37.7122V58.6515H37.8734V59.7515H36.5488Z" fill="#FFD111"/>
<path d="M40.2489 56.2694V55.1743H41.5389V56.2743H41.4148V57.9626C41.4148 58.2024 41.4322 58.3804 41.4545 58.4916C41.4942 58.6696 41.5686 58.7586 41.6803 58.7586C41.7721 58.7586 41.8341 58.6993 41.8688 58.5806C41.906 58.462 41.9209 58.242 41.9209 57.928V56.2743H41.7919V55.1743H42.7445V56.2817H42.5411V58.0541C42.5411 59.2381 42.1962 59.8314 41.5017 59.8314C41.1494 59.8314 40.8889 59.6856 40.7178 59.3963C40.5317 59.0923 40.4375 58.6053 40.4375 57.933V56.2743H40.2465L40.2489 56.2694ZM41.4545 60.2047V60.1997C41.5984 60.1997 41.715 60.2393 41.8068 60.311C41.8961 60.3876 41.9457 60.4766 41.9457 60.5928C41.9457 60.7089 41.901 60.7979 41.8167 60.8746C41.7274 60.9537 41.6083 60.9907 41.4545 60.9907C41.1221 60.9907 40.9559 60.8597 40.9559 60.5977C40.9559 60.4889 41.0055 60.3975 41.0973 60.3184C41.1916 60.2442 41.3107 60.2047 41.452 60.2047H41.4545Z" fill="#FFD111"/>
<path d="M43.568 59.7515V58.6515H43.7913V56.2686H43.568V55.1661H44.7612L45.6766 57.5614H45.6815V56.2686H45.4732V55.1661H46.4902V56.2686H46.2694V59.8282H45.4384L44.3866 57.0374H44.3767V58.6491H44.6024V59.7491H43.568V59.7515Z" fill="#FFD111"/>
<path d="M48.9456 58.1728V57.3027H50.0718V57.6488C50.0718 58.3385 49.9478 58.8847 49.7047 59.2753C49.4765 59.6436 49.1788 59.829 48.8042 59.829C48.2461 59.829 47.8417 59.5324 47.5862 58.9416C47.4076 58.5288 47.3134 58.0344 47.3134 57.4584C47.3134 56.7614 47.4424 56.1928 47.6904 55.7454C47.9434 55.298 48.261 55.073 48.6479 55.073C48.9531 55.073 49.1986 55.2115 49.3773 55.4858V55.167H49.9825V56.7688H49.3773C49.2582 56.3733 49.0895 56.1755 48.8687 56.1755C48.6951 56.1755 48.576 56.2892 48.5016 56.5191C48.4396 56.7169 48.4123 57.0506 48.4123 57.5178C48.4123 57.9504 48.447 58.2643 48.5214 58.4621C48.5934 58.6573 48.71 58.7562 48.8712 58.7562C49.0969 58.7562 49.2086 58.5609 49.2086 58.1728H48.9506H48.9456Z" fill="#FFD111"/>
<path d="M52.6971 59.7521V58.2813H53.2627C53.3396 58.6793 53.4661 58.882 53.6497 58.882C53.7837 58.882 53.8482 58.7831 53.8482 58.5853C53.8482 58.5013 53.8283 58.4172 53.7862 58.3381C53.7415 58.259 53.61 58.1305 53.3892 57.955C53.1709 57.7795 53.0097 57.6015 52.9105 57.4211C52.7592 57.1442 52.6798 56.8229 52.6798 56.4669C52.6798 56.059 52.7542 55.7327 52.8981 55.4806C53.0444 55.2334 53.233 55.1073 53.4686 55.1073C53.6919 55.1073 53.8754 55.221 54.0268 55.4509V55.1667H54.5948V56.4743H54.0268L54.0168 56.4125C53.9598 56.0912 53.8407 55.933 53.6646 55.933C53.5406 55.933 53.4785 56.0269 53.4785 56.2148C53.4785 56.2963 53.4934 56.3606 53.5232 56.4125C53.548 56.4619 53.6894 56.593 53.9375 56.808C54.1855 57.0206 54.3666 57.2258 54.4807 57.4285C54.6246 57.6979 54.699 58.0267 54.699 58.4247C54.699 58.8226 54.6196 59.1514 54.4609 59.4159C54.3046 59.6804 54.1061 59.8139 53.8705 59.8139C53.6497 59.8139 53.4463 59.6952 53.2677 59.453V59.7521H52.7021H52.6971Z" fill="#FFD111"/>
<path d="M55.4874 56.2691V55.1741H56.7773V56.2741H56.6533V57.9624C56.6533 58.2022 56.6682 58.3802 56.693 58.4914C56.7277 58.6694 56.8046 58.7584 56.9163 58.7584C57.0105 58.7584 57.0725 58.699 57.1048 58.5804C57.1395 58.4617 57.1569 58.2417 57.1569 57.9278V56.2741H57.0329V55.1741H57.7795V55.9503C57.8341 55.9602 57.8862 55.9404 57.9333 55.8909C57.9755 55.8415 58.0053 55.7772 58.0102 55.6957H57.9358V55.0505H58.3154V55.6858C58.3154 55.9107 58.2831 56.0763 58.2161 56.1876C58.1293 56.3285 57.9879 56.3977 57.7795 56.4002V58.0563C57.7795 59.2404 57.4372 59.8337 56.7426 59.8337C56.3879 59.8337 56.1249 59.6878 55.9587 59.3986C55.7702 59.0946 55.6784 58.6076 55.6784 57.9352V56.2766H55.4874V56.2691ZM56.7277 60.1377V60.1328C56.8716 60.1328 56.9882 60.1698 57.0825 60.244C57.1743 60.3157 57.2189 60.4096 57.2189 60.5209C57.2189 60.6321 57.1743 60.731 57.0874 60.8076C57.0006 60.8818 56.8815 60.9213 56.7253 60.9213C56.3953 60.9213 56.2291 60.7928 56.2291 60.5332C56.2291 60.4245 56.2738 60.3305 56.373 60.2539C56.4648 60.1797 56.5839 60.1402 56.7253 60.1402L56.7277 60.1377Z" fill="#FFD111"/>
<path d="M60.626 56.9312H62.7048V58.0015H60.626V56.9312Z" fill="#223C73"/>
<path d="M65.3461 59.7515V58.6515H65.5396V56.2686H65.3461V55.1661H66.713V56.2686H66.5145V58.6515H66.713V59.7515H65.3461ZM66.9759 59.7515V58.6515H67.0925L66.5418 57.3464L67.1843 56.2686H66.9759V55.1661H68.2162V56.2686H68.0227L67.5093 57.1288L68.1493 58.6515H68.2758V59.7515H66.9759Z" fill="#223C73"/>
<path d="M69.0279 59.7515V58.6515H69.2189V56.2686H69.0279V55.1661H70.3525V56.2686H70.1938V56.9706H70.7767V56.2686H70.618V55.1661H71.9426V56.2686H71.7491V58.6515H71.9426V59.7515H70.618V58.6515H70.7767V57.9025H70.1938V58.6515H70.3525V59.7515H69.0279Z" fill="#223C73"/>
<path d="M72.6779 59.7515V58.6515H72.8639L73.3402 56.2686H73.1368V55.1661H74.9452V56.2686H74.7417L75.2255 58.6515H75.4115V59.7515H74.0943V58.7479H74.3151L74.2158 58.172H73.5758L73.4692 58.7479H73.6751V59.7515H72.6779ZM73.6751 57.5985H74.1241L73.9132 56.3304H73.9033L73.6751 57.5985Z" fill="#223C73"/>
<path d="M76.0948 59.7515V58.6515H76.3255V56.2686H76.0948V55.1661H77.536V56.2686H77.3029V58.6515H77.536V59.7515H76.0948Z" fill="#223C73"/>
<path d="M80.105 59.7515V58.6515H80.3456V56.2686H80.105V55.1661H81.8017C82.1788 55.1661 82.4591 55.312 82.6526 55.5962C82.8213 55.8533 82.9056 56.192 82.9056 56.6122C82.9056 56.9731 82.8411 57.2771 82.7121 57.5219C82.541 57.858 82.2706 58.0212 81.9034 58.0212H81.323V58.6491H81.576V59.7491H80.105V59.7515ZM81.323 57.0201H81.5884C81.7893 57.0201 81.8886 56.8792 81.8886 56.6023C81.8886 56.3254 81.7794 56.1771 81.5611 56.1771H81.323V57.0225V57.0201Z" fill="#223C73"/>
<path d="M83.6755 59.7515V58.6515H83.869V56.2686H83.6755V55.1661H85.0027V56.2686H84.8439V56.9706H85.4244V56.2686H85.2656V55.1661H86.5903V56.2686H86.3968V58.6515H86.5903V59.7515H85.2656V58.6515H85.4244V57.9025H84.8439V58.6515H85.0027V59.7515H83.6755Z" fill="#223C73"/>
<path d="M87.4579 57.4531C87.4579 56.84 87.5721 56.3086 87.7978 55.8562C88.0607 55.3371 88.4229 55.0751 88.8744 55.0751C89.3259 55.0751 89.688 55.3371 89.951 55.8562C90.1817 56.3086 90.2958 56.84 90.2958 57.4531C90.2958 58.0661 90.1817 58.5951 89.951 59.045C89.688 59.569 89.3284 59.8311 88.8744 59.8311C88.4204 59.8311 88.0607 59.569 87.7978 59.045C87.5696 58.5951 87.4579 58.0661 87.4579 57.4531ZM88.5519 57.4531C88.5519 57.9129 88.5742 58.2342 88.6139 58.4245C88.6611 58.6446 88.7528 58.7558 88.8744 58.7558C88.996 58.7558 89.0877 58.6446 89.1398 58.4245C89.182 58.2342 89.2018 57.9129 89.2018 57.4531C89.2018 56.9933 89.182 56.6695 89.1398 56.4791C89.0853 56.2567 89.0009 56.1479 88.8744 56.1479C88.7479 56.1479 88.6611 56.2567 88.6139 56.4791C88.5717 56.6695 88.5519 56.9933 88.5519 57.4531ZM88.6611 54.7859L88.8992 53.9602H89.4846L88.9612 54.7859H88.6635H88.6611Z" fill="#223C73"/>
<path d="M91.1157 59.7515V58.6515H91.3414V56.2686H91.1157V55.1661H92.3064L93.2193 57.5614H93.2292V56.2686H93.0208V55.1661H94.0329V56.2686H93.8146V59.8282H92.9836L91.9318 57.0374H91.9194V58.6491H92.1476V59.7491H91.1132L91.1157 59.7515Z" fill="#223C73"/>
<path d="M96.4965 58.1728V57.3027H97.6252V57.6488C97.6252 58.3385 97.5012 58.8847 97.2581 59.2753C97.0298 59.6436 96.7297 59.829 96.3551 59.829C95.7994 59.829 95.3926 59.5324 95.1371 58.9416C94.956 58.5288 94.8692 58.0344 94.8692 57.4584C94.8692 56.7614 94.9932 56.1928 95.2438 55.7454C95.4943 55.298 95.8118 55.073 96.1963 55.073C96.5039 55.073 96.7495 55.2115 96.9306 55.4858V55.167H97.5334V56.7688H96.9306C96.8115 56.3733 96.6404 56.1755 96.4221 56.1755C96.246 56.1755 96.1219 56.2892 96.0549 56.5191C95.9904 56.7169 95.9607 57.0506 95.9607 57.5178C95.9607 57.9504 95.9979 58.2643 96.0674 58.4621C96.1368 58.6573 96.2584 58.7562 96.4196 58.7562C96.6453 58.7562 96.7595 58.5609 96.7595 58.1728H96.499H96.4965Z" fill="#223C73"/>
<path d="M3.22217 59.7515V58.6515H3.41318V56.2686H3.22217V55.1661H4.54931V56.2686H4.38807V56.9706H4.97103V56.2686H4.81226V55.1661H6.13941V56.2686H5.94343V58.6515H6.13941V59.7515H4.81226V58.6515H4.97103V57.9025H4.38807V58.6515H4.54931V59.7515H3.22217Z" fill="#C52033"/>
<path d="M-0.504849 59.7515V58.6515H-0.279109V56.2686H-0.504849V55.1661H0.68834L1.60122 57.5614H1.61114V56.2686H1.40028V55.1661H2.41487V56.2686H2.19905V59.8281H1.36556L0.311285 57.0373H0.301361V58.649H0.5271V59.749H-0.507324L-0.504849 59.7515Z" fill="#C52033"/>
</g>
<defs>
<clipPath id="clip0_1_2">
<rect width="98" height="62" fill="white"/>
</clipPath>
</defs>
</svg>
